<?xml version="1.0" encoding="UTF-8" standalone="no"?>
<!-- Created with Inkscape (http://www.inkscape.org/) -->

<svg
   xmlns:dc="http://purl.org/dc/elements/1.1/"
   xmlns:cc="http://creativecommons.org/ns#"
   xmlns:rdf="http://www.w3.org/1999/02/22-rdf-syntax-ns#"
   xmlns:svg="http://www.w3.org/2000/svg"
   xmlns="http://www.w3.org/2000/svg"
   xmlns:sodipodi="http://sodipodi.sourceforge.net/DTD/sodipodi-0.dtd"
   xmlns:inkscape="http://www.inkscape.org/namespaces/inkscape"
   id="svg2985"
   version="1.1"
   inkscape:version="0.48.0 r9654"
   width="1052.3622"
   height="744.09447"
   xml:space="preserve"
   sodipodi:docname="estruturas.eps"><metadata
     id="metadata2991"><rdf:RDF><cc:Work
         rdf:about=""><dc:format>image/svg+xml</dc:format><dc:type
           rdf:resource="http://purl.org/dc/dcmitype/StillImage" /><dc:title></dc:title></cc:Work></rdf:RDF></metadata><defs
     id="defs2989" /><sodipodi:namedview
     pagecolor="#ffffff"
     bordercolor="#666666"
     borderopacity="1"
     objecttolerance="10"
     gridtolerance="10"
     guidetolerance="10"
     inkscape:pageopacity="0"
     inkscape:pageshadow="2"
     inkscape:window-width="640"
     inkscape:window-height="480"
     id="namedview2987"
     showgrid="false"
     inkscape:zoom="0.38839154"
     inkscape:cx="526.18109"
     inkscape:cy="372.04724"
     inkscape:window-x="0"
     inkscape:window-y="24"
     inkscape:window-maximized="0"
     inkscape:current-layer="g2993" /><g
     id="g2993"
     inkscape:groupmode="layer"
     inkscape:label="estruturas"
     transform="matrix(1.25,0,0,-1.25,0,744.09447)"><g
       id="g2995"><g
         id="g2997"
         transform="matrix(0.893982,0,0,-1,0,595.27557)"><path
           d="m 376.039,53.305 263.598,0 0,206.008 -263.598,0 0,-206.008 z"
           style="fill:none;stroke:#000000;stroke-opacity:1;stroke-width:2.67037;stroke-linecap:butt;stroke-linejoin:miter;stroke-miterlimit:1;stroke-dasharray:none"
           id="path2999" /></g><text
         transform="matrix(0.89398228,0,0,-1,353.7338,556.9254)"
         id="text3001"><tspan
           style="fill:#000000;fill-opacity:1;fill-rule:nonzero;stroke:none;font-family:DejaVu Sans Bold;font-variant:normal;font-weight:bold;font-size:24.897252;writing-mode:lr;-inkscape-font-specification:DejaVuSans-Bold"
           x="0 13.76818036 30.57382546 48.40025789 65.25569749 73.79545493 90.60110003 99.26534372 117.09177616 133.94721576 142.61145946 160.43789189 177.21863974 195.04507217 212.17438154"
           y="0"
           sodipodi:role="line"
           id="tspan3003">Tabela de dados</tspan></text>
<text
         transform="matrix(0.89398228,0,0,-1,347.70604,503.65455)"
         id="text3005"><tspan
           style="fill:#000000;fill-opacity:1;fill-rule:nonzero;stroke:none;font-family:DejaVu Sans;font-variant:normal;font-weight:normal;font-size:21.785095;writing-mode:lr;-inkscape-font-specification:DejaVuSans"
           x="0 15.2277814 29.03953163 42.37200977 55.24700092 68.64483434 75.57249455 152.84422652 169.59696457 182.95122781 196.76297804 210.05188599 216.9795462"
           y="0"
           sodipodi:role="line"
           id="tspan3007">Chave 1Dado 1</tspan><tspan
           style="fill:#000000;fill-opacity:1;fill-rule:nonzero;stroke:none;font-family:DejaVu Sans;font-variant:normal;font-weight:normal;font-size:21.785095;writing-mode:lr;-inkscape-font-specification:DejaVuSans"
           x="0.19864129 15.42642269 29.23817292 42.57065106 55.44564221 68.84347563 75.77113584"
           y="46.847888"
           sodipodi:role="line"
           id="tspan3009">Chave 2</tspan><tspan
           style="fill:#000000;fill-opacity:1;fill-rule:nonzero;stroke:none;font-family:DejaVu Sans;font-variant:normal;font-weight:normal;font-size:21.785095;writing-mode:lr;-inkscape-font-specification:DejaVuSans"
           x="152.92605613 169.70057928 183.03305742 196.84480765 210.15550069 217.06137581"
           y="46.549903"
           sodipodi:role="line"
           id="tspan3011">Dado 2</tspan><tspan
           style="fill:#000000;fill-opacity:1;fill-rule:nonzero;stroke:none;font-family:DejaVu Sans;font-variant:normal;font-weight:normal;font-size:21.785095;writing-mode:lr;-inkscape-font-specification:DejaVuSans"
           x="0.39727779 15.62505919 29.43680942 42.76928756 55.64427871 69.04211213 75.96977234"
           y="141.07338"
           sodipodi:role="line"
           id="tspan3013">Chave N</tspan><tspan
           style="fill:#000000;fill-opacity:1;fill-rule:nonzero;stroke:none;font-family:DejaVu Sans;font-variant:normal;font-weight:normal;font-size:21.785095;writing-mode:lr;-inkscape-font-specification:DejaVuSans"
           x="153.32335091 170.09787406 183.4303522 197.24210243 210.55279547 217.45867059"
           y="139.31866"
           sodipodi:role="line"
           id="tspan3015">Dado N</tspan></text>
<g
         id="g3017"
         transform="matrix(0.893982,0,0,-1,0,595.27557)"><path
           d="m 387.12,107.578 235.275,0"
           style="fill:none;stroke:#000000;stroke-opacity:1;stroke-width:2.115609;stroke-linecap:butt;stroke-linejoin:miter;stroke-miterlimit:4;stroke-dasharray:none"
           id="path3019" /></g><g
         id="g3021"
         transform="matrix(0.893982,0,0,-1,0,595.27557)"><path
           d="m 508.959,61.918 0,189.129"
           style="fill:none;stroke:#000000;stroke-opacity:1;stroke-width:1.896828;stroke-linecap:butt;stroke-linejoin:miter;stroke-miterlimit:4;stroke-dasharray:none"
           id="path3023" /></g><g
         id="g3025"
         transform="matrix(1,0,0,-1,0,595.27557)"><path
           d="m 233.781,435.93 462.125,0 0,126.074 -462.125,0 0,-126.074 z"
           style="fill:none;stroke:#000000;stroke-opacity:1;stroke-width:2.765993;stroke-linecap:butt;stroke-linejoin:miter;stroke-miterlimit:1;stroke-dasharray:none"
           id="path3027" /></g><text
         transform="matrix(0.89398235,0,0,-1,430.59428,174.30167)"
         id="text3029"><tspan
           style="fill:#000000;fill-opacity:1;fill-rule:nonzero;stroke:none;font-family:DejaVu Sans Bold;font-variant:normal;font-weight:bold;font-size:24.897251;writing-mode:lr;-inkscape-font-specification:DejaVuSans-Bold"
           x="0 15.85954889 32.96396032"
           y="0"
           sodipodi:role="line"
           id="tspan3031">Log</tspan></text>
<path
         d="m 253.77,509.42 0,2.461 47.203,0 0,-2.461 -47.203,0 z"
         style="fill:#008000;fill-opacity:1;fill-rule:nonzero;stroke:none"
         id="path3033" /><path
         d="m 322.57,510.776 -21.457,-10.653 0,21.305 21.457,-10.652 z"
         style="fill:#008000;fill-opacity:1;fill-rule:nonzero;stroke:none"
         id="path3035" /><path
         d="m 253.156,365.182 0,2.461 47.203,0 0,-2.461 -47.203,0 z"
         style="fill:#800000;fill-opacity:1;fill-rule:nonzero;stroke:none"
         id="path3037" /><path
         d="m 321.957,366.537 -21.457,-10.652 0,21.305 21.457,-10.653 z"
         style="fill:#800000;fill-opacity:1;fill-rule:nonzero;stroke:none"
         id="path3039" /><path
         d="m 587.863,510.779 0,2.461 47.203,0 0,-2.461 -47.203,0 z"
         style="fill:#008000;fill-opacity:1;fill-rule:nonzero;stroke:none"
         id="path3041" /><path
         d="m 656.664,512.135 -21.457,-10.652 0,21.304 21.457,-10.652 z"
         style="fill:#008000;fill-opacity:1;fill-rule:nonzero;stroke:none"
         id="path3043" /><text
         transform="matrix(1,0,0,-1,667.13193,503.9319)"
         id="text3045"><tspan
           style="fill:#008000;fill-opacity:1;fill-rule:nonzero;stroke:none;font-family:DejaVu Sans Bold;font-variant:normal;font-weight:bold;font-size:18.4;writing-mode:lr;-inkscape-font-specification:DejaVuSans-Bold"
           x="0 15.272 27.692 40.8664 53.5072 59.9104"
           y="0"
           sodipodi:role="line"
           id="tspan3047">Dado 1</tspan></text>
<text
         transform="matrix(1,0,0,-1,84.119139,503.31913)"
         id="text3049"><tspan
           style="fill:#008000;fill-opacity:1;fill-rule:nonzero;stroke:none;font-family:DejaVu Sans;font-variant:normal;font-weight:normal;font-size:18.4;writing-mode:lr;-inkscape-font-specification:DejaVuSans"
           x="0 9.9176 21.2336 26.312 33.5432 45.2088 52.7896 64.0504 71.2448 84.1064 95.772 107.0328 117.9072 129.2232 135.0744 146.7768"
           y="0"
           sodipodi:role="line"
           id="tspan3051">Leitura(Chave 1)</tspan></text>
<path
         d="m 791.031,57.776 0,2.461 -61.219,0 0,-2.461 61.219,0 z"
         style="fill:#800000;fill-opacity:1;fill-rule:nonzero;stroke:none"
         id="path3053" /><path
         d="m 701.805,59.131 27.824,-10.652 0,21.304 -27.824,-10.652 z"
         style="fill:#800000;fill-opacity:1;fill-rule:nonzero;stroke:none"
         id="path3055" /><text
         transform="matrix(1,0,0,-1,37.038297,360.44257)"
         id="text3057"><tspan
           style="fill:#800000;fill-opacity:1;fill-rule:nonzero;stroke:none;font-family:DejaVu Sans;font-variant:normal;font-weight:normal;font-size:18.4;writing-mode:lr;-inkscape-font-specification:DejaVuSans"
           x="0 11.6288 21.1968 31.3168 38.8976 43.9944 51.2072 62.4864 69.6624 82.524 94.1896 105.4688 116.3432 127.6592 133.492 147.2552 153.1064 158.9392 171.5248 183.816 196.8656296"
           y="0"
           sodipodi:role="line"
           id="tspan3059">Escrita(Chave N, ABC)</tspan></text>
<path
         d="m 791.234,365.315 0,2.461 -203.796,0 0,-2.461 203.796,0 z"
         style="fill:#800000;fill-opacity:1;fill-rule:nonzero;stroke:none"
         id="path3061" /><path
         d="m 789.137,367.26 2.461,0 0,-309.328 -2.461,0 0,309.328 z"
         style="fill:#800000;fill-opacity:1;fill-rule:nonzero;stroke:none"
         id="path3063" /><text
         transform="matrix(1,0,0,-1,454.94468,282.0766)"
         id="text3065"><tspan
           style="fill:#800000;fill-opacity:1;fill-rule:nonzero;stroke:none;font-family:DejaVu Sans;font-variant:normal;font-weight:normal;font-size:18.4;writing-mode:lr;-inkscape-font-specification:DejaVuSans"
           x="0 12.2544 23.92 28.9984 39.1184 44.2152 55.4392 67.1048 78.384 85.9648 93.1408"
           y="0"
           sodipodi:role="line"
           id="tspan3067">Adicionar(I</tspan></text>
<text
         transform="matrix(1,0,0,-1,553.62905,278.3966)"
         id="text3069"><tspan
           style="fill:#800000;fill-opacity:1;fill-rule:nonzero;stroke:none;font-family:DejaVu Sans;font-variant:normal;font-weight:normal;font-size:11.960168;writing-mode:lr;-inkscape-font-specification:DejaVuSans"
           x="0"
           y="0"
           id="tspan3071">T</tspan></text>
<text
         transform="matrix(1,0,0,-1,560.94064,282.0766)"
         id="text3073"><tspan
           style="fill:#800000;fill-opacity:1;fill-rule:nonzero;stroke:none;font-family:DejaVu Sans;font-variant:normal;font-weight:normal;font-size:18.4;writing-mode:lr;-inkscape-font-specification:DejaVuSans"
           x="0 5.8328 18.6944 30.36 41.6392 52.5136 63.8296 69.6624 83.4256 89.2768 95.1096 109.2776 120.5384 132.204 143.4464 149.2792 163.0424 168.8936 174.7264 187.5218888 199.8130888 212.6746888"
           y="0"
           sodipodi:role="line"
           id="tspan3075">,Chave N, Dado N, ABC)</tspan></text>
<text
         transform="matrix(1,0,0,-1,246.12766,127.01278)"
         id="text3077"><tspan
           style="fill:#000000;fill-opacity:1;fill-rule:nonzero;stroke:none;font-family:DejaVu Sans;font-variant:normal;font-weight:normal;font-size:20.592;writing-mode:lr;-inkscape-font-specification:DejaVuSans"
           x="0 8.03088"
           y="0"
           sodipodi:role="line"
           id="tspan3079">(I</tspan></text>
<text
         transform="matrix(1,0,0,-1,260.24444,122.89438)"
         id="text3081"><tspan
           style="fill:#000000;fill-opacity:1;fill-rule:nonzero;stroke:none;font-family:DejaVu Sans;font-variant:normal;font-weight:normal;font-size:13.384988;writing-mode:lr;-inkscape-font-specification:DejaVuSans"
           x="0"
           y="0"
           id="tspan3083">X</tspan></text>
<text
         transform="matrix(1,0,0,-1,269.42048,127.01278)"
         id="text3085"><tspan
           style="fill:#000000;fill-opacity:1;fill-rule:nonzero;stroke:none;font-family:DejaVu Sans;font-variant:normal;font-weight:normal;font-size:20.592;writing-mode:lr;-inkscape-font-specification:DejaVuSans"
           x="0 6.527664 13.07592 27.469728 40.525056 53.12736 65.297232 77.961312 84.509568 97.997328 104.545584 111.073248 126.929088 139.531392 152.58672 165.168432 171.696096 185.781024 198.836352 207.16678382 212.87076782 225.92609582 238.50780782 245.03547182 258.13198382 264.65964782 271.18731182 287.04315182 299.64545582 312.70078382 325.28249582 331.81015982 347.21297582 359.79468782 371.96455982 384.54627182 391.07393582 404.17044782"
           y="0"
           sodipodi:role="line"
           id="tspan3087">, Chave K, Dado Antigo 1, Dado Novo 1)</tspan><tspan
           style="fill:#000000;fill-opacity:1;fill-rule:nonzero;stroke:none;font-family:DejaVu Sans;font-variant:normal;font-weight:normal;font-size:20.592;writing-mode:lr;-inkscape-font-specification:DejaVuSans"
           x="-23.69737656 -15.66649656"
           y="37.068174"
           sodipodi:role="line"
           id="tspan3089">(I</tspan></text>
<text
         transform="matrix(1,0,0,-1,259.83988,85.826217)"
         id="text3091"><tspan
           style="fill:#000000;fill-opacity:1;fill-rule:nonzero;stroke:none;font-family:DejaVu Sans;font-variant:normal;font-weight:normal;font-size:13.384988;writing-mode:lr;-inkscape-font-specification:DejaVuSans"
           x="0"
           y="0"
           id="tspan3093">Y</tspan></text>
<text
         transform="matrix(1,0,0,-1,268.0225,89.944617)"
         id="text3095"><tspan
           style="fill:#000000;fill-opacity:1;fill-rule:nonzero;stroke:none;font-family:DejaVu Sans;font-variant:normal;font-weight:normal;font-size:20.592;writing-mode:lr;-inkscape-font-specification:DejaVuSans"
           x="0 6.527664 13.07592 27.469728 40.525056 53.12736 65.297232 77.961312 84.509568 90.563616 97.09128 103.639536 117.703872 130.7592 138.851856 144.535248 157.590576 170.172288 176.699952 182.754 189.302256 195.82992 211.5506147 224.1323267 236.3021987 248.8839107 255.4115747 261.4656227"
           y="0"
           sodipodi:role="line"
           id="tspan3097">, Chave J, Antigo J, Novo J)</tspan></text>
<text
         transform="matrix(1,0,0,-1,245.58694,53.75741)"
         id="text3099"><tspan
           style="fill:#800000;fill-opacity:1;fill-rule:nonzero;stroke:none;font-family:DejaVu Sans Bold;font-variant:normal;font-weight:bold;font-size:20.592;writing-mode:lr;-inkscape-font-specification:DejaVuSans-Bold"
           x="0 9.410544"
           y="0"
           sodipodi:role="line"
           id="tspan3101">(I</tspan></text>
<text
         transform="matrix(1,0,0,-1,262.67991,49.63901)"
         id="text3103"><tspan
           style="fill:#800000;fill-opacity:1;fill-rule:nonzero;stroke:none;font-family:DejaVu Sans Bold;font-variant:normal;font-weight:bold;font-size:13.384988;writing-mode:lr;-inkscape-font-specification:DejaVuSans-Bold"
           x="0"
           y="0"
           id="tspan3105">T</tspan></text>
<text
         transform="matrix(1,0,0,-1,271.80366,53.75741)"
         id="text3107"><tspan
           style="fill:#800000;fill-opacity:1;fill-rule:nonzero;stroke:none;font-family:DejaVu Sans Bold;font-variant:normal;font-weight:bold;font-size:20.592;writing-mode:lr;-inkscape-font-specification:DejaVuSans-Bold"
           x="0 7.82496 14.970384 30.084912 44.746416 58.646016 72.051408 86.012784 93.158208 110.393712 118.218672 125.384688 142.476048 156.375648 171.11952 185.266224 192.43224 209.86143235 217.66580035 224.83181635 240.74943235 256.44053635 271.53447235"
           y="0"
           sodipodi:role="line"
           id="tspan3109">, Chave N, Dado N, ABC)</tspan></text>
</g></g></svg>