<?xml version="1.0" encoding="UTF-8" standalone="no"?>
<!-- Created with Inkscape (http://www.inkscape.org/) -->

<svg
   xmlns:dc="http://purl.org/dc/elements/1.1/"
   xmlns:cc="http://creativecommons.org/ns#"
   xmlns:rdf="http://www.w3.org/1999/02/22-rdf-syntax-ns#"
   xmlns:svg="http://www.w3.org/2000/svg"
   xmlns="http://www.w3.org/2000/svg"
   xmlns:sodipodi="http://sodipodi.sourceforge.net/DTD/sodipodi-0.dtd"
   xmlns:inkscape="http://www.inkscape.org/namespaces/inkscape"
   id="svg3273"
   version="1.1"
   inkscape:version="0.48.0 r9654"
   width="1171.25"
   height="710"
   xml:space="preserve"
   sodipodi:docname="protocolo.svg"><metadata
     id="metadata3279"><rdf:RDF><cc:Work
         rdf:about=""><dc:format>image/svg+xml</dc:format><dc:type
           rdf:resource="http://purl.org/dc/dcmitype/StillImage" /><dc:title /></cc:Work></rdf:RDF></metadata><defs
     id="defs3277"><clipPath
       clipPathUnits="userSpaceOnUse"
       id="clipPath3289"><path
         d="m 0,5679.69 9370,0 0,-5669.99859 -9370,0 L 0,5679.69 z"
         id="path3291" /></clipPath></defs><sodipodi:namedview
     pagecolor="#ffffff"
     bordercolor="#666666"
     borderopacity="1"
     objecttolerance="10"
     gridtolerance="10"
     guidetolerance="10"
     inkscape:pageopacity="0"
     inkscape:pageshadow="2"
     inkscape:window-width="1366"
     inkscape:window-height="690"
     id="namedview3275"
     showgrid="false"
     inkscape:zoom="0.40704225"
     inkscape:cx="585.625"
     inkscape:cy="355"
     inkscape:window-x="0"
     inkscape:window-y="24"
     inkscape:window-maximized="1"
     inkscape:current-layer="g3281" /><g
     id="g3281"
     inkscape:groupmode="layer"
     inkscape:label="protocolo"
     transform="matrix(1.25,0,0,-1.25,0,710)"><g
   id="g3305"
   transform="translate(30.4,-1.6)"><text
   id="text3307"
   transform="matrix(0.993579,0,0,-1,225.378,441.404)"><tspan
     id="tspan3309"
     y="0"
     x="0"
     style="font-size:28.89290047px;font-variant:normal;font-weight:bold;writing-mode:lr-tb;fill:#000080;fill-opacity:1;fill-rule:nonzero;stroke:none;font-family:DejaVu Sans;-inkscape-font-specification:DejaVuSans-Bold">L</tspan></text>


</g><g
   id="g3311"
   transform="translate(30.4,-1.6)"><text
   id="text3313"
   transform="matrix(0.993579,0,0,-1,253.636,441.404)"><tspan
     id="tspan3315"
     sodipodi:role="line"
     y="0"
     x="0 18.369127 45.926163 66.115227 84.439713 102.15706 119.23858 137.00098 147.40677 162.97649 180.73889 188.74709 200.07036 218.39444 230.29439"
     style="font-size:28.89290047px;font-variant:normal;font-weight:normal;writing-mode:lr-tb;fill:#000000;fill-opacity:1;fill-rule:nonzero;stroke:none;font-family:DejaVu Sans;-inkscape-font-specification:DejaVuSans">13Chave-Leitura</tspan></text>


</g><g
   id="g3317"
   transform="translate(30.4,-1.6)"><text
   id="text3319"
   transform="matrix(0.993579,0,0,-1,225.378,405.288)"><tspan
     id="tspan3321"
     y="0"
     x="0"
     style="font-size:28.89290047px;font-variant:normal;font-weight:bold;writing-mode:lr-tb;fill:#000080;fill-opacity:1;fill-rule:nonzero;stroke:none;font-family:DejaVu Sans;-inkscape-font-specification:DejaVuSans-Bold">E</tspan></text>


</g><g
   id="g3323"
   transform="translate(30.4,-1.6)"><text
   id="text3325"
   transform="matrix(0.993579,0,0,-1,254.982,405.288)"><tspan
     id="tspan3327"
     sodipodi:role="line"
     y="0"
     x="0 18.369127 45.926163 66.115227 84.439713 102.15706 119.23858 137.00098 147.40677 165.67171 180.7249 196.62166 208.52161 216.5011 227.85345 254.7296 282.28662 295.37012 313.13214 328.15683 339.4801"
     style="font-size:28.89290047px;font-variant:normal;font-weight:normal;writing-mode:lr-tb;fill:#000000;fill-opacity:1;fill-rule:nonzero;stroke:none;font-family:DejaVu Sans;-inkscape-font-specification:DejaVuSans">13Chave-Escrita5Teste</tspan><tspan
     id="tspan3329"
     y="36.116402"
     x="-59.9305"
     style="font-size:28.89290047px;font-variant:normal;font-weight:normal;writing-mode:lr-tb;fill:#000000;fill-opacity:1;fill-rule:nonzero;stroke:none;font-family:DejaVu Sans;-inkscape-font-specification:DejaVuSans">}</tspan></text>


</g><path
   inkscape:connector-curvature="0"
   id="path3331"
   style="fill:none;stroke:#000000;stroke-width:1.91464996;stroke-linecap:round;stroke-linejoin:round;stroke-miterlimit:4;stroke-opacity:1;stroke-dasharray:1.91465, 1.91465;stroke-dashoffset:0.765858"
   d="m 218.892,349.079 459.457,0 0,165.02 -459.457,0 0,-165.02 z" /><g
   id="g3333"
   transform="translate(27.2,-22.4)"><text
   id="text3335"
   transform="matrix(1,0,0,-1,-0.2,547.92)"><tspan
     id="tspan3337"
     sodipodi:role="line"
     y="0"
     x="0 17.510401 33.766399 40.857418 47.97422 62.080002 77.772797 87.807999 94.924797 110.08"
     style="font-size:25.60000038px;font-variant:normal;font-weight:normal;writing-mode:lr-tb;fill:#000000;fill-opacity:1;fill-rule:nonzero;stroke:none;font-family:DejaVu Sans;-inkscape-font-specification:DejaVuSans">Aplicativo</tspan></text>


</g><path
   inkscape:connector-curvature="0"
   id="path3339"
   style="fill:#000000;fill-opacity:1;fill-rule:nonzero;stroke:none"
   d="m 83.002,28.1379 5.45312,0 0,472.727 -5.45312,0 0,-472.727 z" /><path
   inkscape:connector-curvature="0"
   id="path3341"
   style="fill:#000000;fill-opacity:1;fill-rule:nonzero;stroke:none"
   d="m 819.619,27.9191 5.45273,0 0,472.727 -5.45273,0 0,-472.727 z" /><path
   inkscape:connector-curvature="0"
   id="path3343"
   style="fill:#000000;fill-opacity:1;fill-rule:nonzero;stroke:none"
   d="m 119.0719,428.092 47.2031,0 0,2.46094 -47.2031,0 0,-2.46094 z" /><path
   inkscape:connector-curvature="0"
   id="path3345"
   style="fill:#000000;fill-opacity:1;fill-rule:nonzero;stroke:none"
   d="m 187.873,429.447 -21.457,-10.652 0,21.304 21.457,-10.652 z" /><path
   inkscape:connector-curvature="0"
   id="path3347"
   style="fill:#000000;fill-opacity:1;fill-rule:nonzero;stroke:none"
   d="m 704.017,427.658 47.2027,0 0,2.45664 -47.2027,0 0,-2.45664 z" /><path
   inkscape:connector-curvature="0"
   id="path3349"
   style="fill:#000000;fill-opacity:1;fill-rule:nonzero;stroke:none"
   d="m 772.818,429.01 -21.457,-10.653 0,21.305 21.457,-10.652 z" /><g
   id="g3363"
   transform="translate(30.4,-17.6)"><text
   id="text3365"
   transform="matrix(0.993579,0,0,-1,226.084,261.588)"><tspan
     id="tspan3367"
     y="0"
     x="0"
     style="font-size:28.89290047px;font-variant:normal;font-weight:bold;writing-mode:lr-tb;fill:#008000;fill-opacity:1;fill-rule:nonzero;stroke:none;font-family:DejaVu Sans;-inkscape-font-specification:DejaVuSans-Bold">R</tspan></text>


</g><g
   id="g3369"
   transform="translate(30.4,-17.6)"><text
   id="text3371"
   transform="matrix(0.993579,0,0,-1,257.275,261.588)"><tspan
     id="tspan3373"
     sodipodi:role="line"
     y="0"
     x="0 18.397827 45.955238 66.144302 84.468399 102.15704 119.23856 137.00058 147.43585 163.00517 180.76758 188.74707 200.09903 218.42352 230.32347 257.19962 285.06293 302.54074 320.25806 328.23758 345.89642"
     style="font-size:28.89290047px;font-variant:normal;font-weight:normal;writing-mode:lr-tb;fill:#000000;fill-opacity:1;fill-rule:nonzero;stroke:none;font-family:DejaVu Sans;-inkscape-font-specification:DejaVuSans">13Chave-Leitura5Valor</tspan><tspan
     id="tspan3375"
     y="36.116001"
     x="-61.5275"
     style="font-size:28.89290047px;font-variant:normal;font-weight:normal;writing-mode:lr-tb;fill:#000000;fill-opacity:1;fill-rule:nonzero;stroke:none;font-family:DejaVu Sans;-inkscape-font-specification:DejaVuSans">}</tspan></text>


</g><path
   inkscape:connector-curvature="0"
   id="path3377"
   style="fill:none;stroke:#000000;stroke-width:2.00480008;stroke-linecap:round;stroke-linejoin:round;stroke-miterlimit:4;stroke-opacity:1;stroke-dasharray:2.0048, 2.0048;stroke-dashoffset:0.80192"
   d="m 219.599,190.49 459.457,0 0,127.793 -459.457,0 0,-127.793 z" /><path
   inkscape:connector-curvature="0"
   id="path3379"
   style="fill:#000000;fill-opacity:1;fill-rule:nonzero;stroke:none"
   d="m 141.763,252.529 47.1992,0 0,2.46094 -47.1992,0 0,-2.46094 z" /><path
   inkscape:connector-curvature="0"
   id="path3381"
   style="fill:#000000;fill-opacity:1;fill-rule:nonzero;stroke:none"
   d="m 120.1621,253.881 21.4569,-10.653 0,21.305 -21.4569,-10.652 z" /><path
   inkscape:connector-curvature="0"
   id="path3383"
   style="fill:#000000;fill-opacity:1;fill-rule:nonzero;stroke:none"
   d="m 725.545,251.947 47.1992,0 0,2.46133 -47.1992,0 0,-2.46133 z" /><path
   inkscape:connector-curvature="0"
   id="path3385"
   style="fill:#000000;fill-opacity:1;fill-rule:nonzero;stroke:none"
   d="m 703.947,253.299 21.453,-10.649 0,21.301 -21.453,-10.652 z" /><g
   id="g3677"
   transform="matrix(-1,0,0,1,276.4,11.2)"><path
     d="m 88.602,62.348 47.1992,0 0,2.46094 -47.1992,0 0,-2.46094 z"
     style="fill:#000000;fill-opacity:1;fill-rule:nonzero;stroke:none"
     id="path3387"
     inkscape:connector-curvature="0" /><path
     d="m 157.398,63.7031 -21.453,-10.6519 0,21.3047 21.453,-10.6528 z"
     style="fill:#000000;fill-opacity:1;fill-rule:nonzero;stroke:none"
     id="path3389"
     inkscape:connector-curvature="0" /></g><g
   id="g3673"
   transform="matrix(-1,0,0,1,1444.982,11.2)"><path
     d="m 672.891,63.223 47.2031,0 0,2.45703 -47.2031,0 0,-2.45703 z"
     style="fill:#000000;fill-opacity:1;fill-rule:nonzero;stroke:none"
     id="path3391"
     inkscape:connector-curvature="0" /><path
     d="m 741.691,64.5738 -21.457,-10.6519 0,21.3051 21.457,-10.6532 z"
     style="fill:#000000;fill-opacity:1;fill-rule:nonzero;stroke:none"
     id="path3393"
     inkscape:connector-curvature="0" /></g><g
   id="g3395"
   transform="translate(46.4,-8)"><text
   id="text3397"
   transform="scale(1,-1)"
   x="702.86823"
   y="-532.51898"><tspan
     id="tspan3399"
     sodipodi:role="line"
     style="font-size:25.60000038px;font-variant:normal;font-weight:normal;writing-mode:lr-tb;fill:#000000;fill-opacity:1;fill-rule:nonzero;stroke:none;font-family:DejaVu Sans;-inkscape-font-specification:DejaVuSans"
     x="702.86823"
     y="-532.51898">Coordenador</tspan></text>


<text
   id="text3401"
   transform="matrix(1,0,0,-1,396.422,159.61)"><tspan
     id="tspan3403"
     sodipodi:role="line"
     y="0"
     x="0 19.040001"
     style="font-size:22.39999962px;font-variant:normal;font-weight:bold;writing-mode:lr-tb;fill:#000000;fill-opacity:1;fill-rule:nonzero;stroke:none;font-family:DejaVu Sans;-inkscape-font-specification:DejaVuSans-Bold">OU</tspan></text>


</g><path
   inkscape:connector-curvature="0"
   id="path3405"
   style="fill:none;stroke:#000000;stroke-width:2.00480008;stroke-linecap:round;stroke-linejoin:round;stroke-miterlimit:4;stroke-opacity:1;stroke-dasharray:2.0048, 2.0048;stroke-dashoffset:0.80192"
   d="m 219.365,13.2 459.457,0 0,127.793 -459.457,0 0,-127.793 z" /><g
   id="g3419"
   transform="translate(30.4,11.2)"><text
   id="text3421"
   transform="matrix(1,0,0,-1,228.77029,55.6484)"><tspan
     id="tspan3423"
     y="0"
     x="0"
     style="font-size:28.79999924px;font-variant:normal;font-weight:bold;writing-mode:lr-tb;fill:#800000;fill-opacity:1;fill-rule:nonzero;stroke:none;font-family:DejaVu Sans;-inkscape-font-specification:DejaVuSans-Bold">P</tspan></text>


</g><g
   id="g3425"
   transform="translate(30.4,11.2)"><text
   id="text3427"
   transform="matrix(1,0,0,-1,259.0214,55.6484)"><tspan
     id="tspan3429"
     sodipodi:role="line"
     y="0"
     x="0 18.345707 36.662506 45.849812 67.996902 85.708908 100.74261 116.61152 128.47722 136.45471 152.32362 170.00693 187.60362 196.79092 215.07893 232.67563 241.86293 258.73987 269.97198 287.59094 305.87894 313.88535 331.59735 359.64856"
     style="font-size:28.79999924px;font-variant:normal;font-weight:normal;writing-mode:lr-tb;fill:#000000;fill-opacity:1;fill-rule:nonzero;stroke:none;font-family:DejaVu Sans;-inkscape-font-specification:DejaVuSans">21 Descrição do Problema</tspan><tspan
     id="tspan3431"
     y="36"
     x="-60.2897"
     style="font-size:28.79999924px;font-variant:normal;font-weight:normal;writing-mode:lr-tb;fill:#000000;fill-opacity:1;fill-rule:nonzero;stroke:none;font-family:DejaVu Sans;-inkscape-font-specification:DejaVuSans">}</tspan></text>


</g><text
   xml:space="preserve"
   style="font-size:22.39999962px;font-style:normal;font-weight:bold;line-height:125%;letter-spacing:0px;word-spacing:0px;fill:#000080;fill-opacity:1;stroke:none;font-family:Sans;-inkscape-font-specification:Sans Bold"
   x="735.03754"
   y="-277.20963"
   id="text3452"
   sodipodi:linespacing="125%"
   transform="scale(1,-1)"><tspan
     sodipodi:role="line"
     id="tspan3454"
     x="735.03754"
     y="-277.20963">a</tspan></text>


<text
   xml:space="preserve"
   style="font-size:22.39999962px;font-style:normal;font-weight:bold;line-height:125%;letter-spacing:0px;word-spacing:0px;fill:#000080;fill-opacity:1;stroke:none;font-family:Sans;-inkscape-font-specification:Sans Bold"
   x="734.11877"
   y="-105.40069"
   id="text3456"
   sodipodi:linespacing="125%"
   transform="scale(1,-1)"><tspan
     sodipodi:role="line"
     id="tspan3458"
     x="734.11877"
     y="-105.40069">b</tspan></text>


<text
   xml:space="preserve"
   style="font-size:25.60000038px;font-style:normal;font-weight:normal;line-height:125%;letter-spacing:0px;word-spacing:0px;fill:#000000;fill-opacity:1;stroke:none;font-family:Sans;-inkscape-font-specification:Sans"
   x="229.08234"
   y="-479.5571"
   id="text3275"
   sodipodi:linespacing="125%"
   transform="scale(1,-1)"><tspan
     sodipodi:role="line"
     id="tspan3277"
     x="229.08234"
     y="-479.5571"><tspan
   style="font-weight:bold;fill:#000080;-inkscape-font-specification:Sans Bold"
   id="tspan3279">M</tspan> 3 123 {</tspan></text>
<text
   transform="scale(1,-1)"
   sodipodi:linespacing="125%"
   id="text3283"
   y="-284.35709"
   x="229.08234"
   style="font-size:25.60000038px;font-style:normal;font-weight:normal;line-height:125%;letter-spacing:0px;word-spacing:0px;fill:#000000;fill-opacity:1;stroke:none;font-family:Sans;-inkscape-font-specification:Sans"
   xml:space="preserve"><tspan
     y="-284.35709"
     x="229.08234"
     id="tspan3285"
     sodipodi:role="line"><tspan
   id="tspan3287"
   style="font-weight:bold;fill:#008000;-inkscape-font-specification:Sans Bold">M</tspan> 3 123 {</tspan></text>
<text
   xml:space="preserve"
   style="font-size:25.60000038px;font-style:normal;font-weight:normal;line-height:125%;letter-spacing:0px;word-spacing:0px;fill:#000000;fill-opacity:1;stroke:none;font-family:Sans;-inkscape-font-specification:Sans"
   x="229.08234"
   y="-106.7571"
   id="text3289"
   sodipodi:linespacing="125%"
   transform="scale(1,-1)"><tspan
     sodipodi:role="line"
     id="tspan3291"
     x="229.08234"
     y="-106.7571"><tspan
   style="font-weight:bold;fill:#550000;-inkscape-font-specification:Sans Bold"
   id="tspan3293">M</tspan> 3 123 {</tspan></text>
</g></svg>